<svg width="160" height="161" viewBox="0 0 160 161" fill="none" xmlns="http://www.w3.org/2000/svg">
<g clip-path="url(#clip0_730_22442)">
<path d="M152.647 50.0959H149.712C148.383 50.0959 147.109 49.5681 146.169 48.6284L145.562 48.0206C143.682 46.1412 141.134 45.0859 138.476 45.0859H112.566L126.361 64.7937L120.081 65.1275V86.0077C120.081 90.4908 116.181 93.9768 111.726 93.4758L70.9902 88.8924C55.8502 86.9177 42.4249 98.7055 42.4256 113.974V114.229C42.4256 120.193 39.1812 125.794 33.8518 128.471C31.6659 129.569 29.484 130.128 27.3934 130.237C19.1681 130.666 9.85938 124.124 9.85938 115.993V117.654C9.85938 129.537 19.0503 139.396 30.904 140.229C44.0352 141.079 54.9502 130.68 54.9502 117.732V117.725C54.9502 112.034 58.7487 107.229 63.9483 105.709C65.7965 105.169 67.7802 105.308 69.6068 105.917L82.5055 110.217L100.193 118.078C103.396 119.502 106.862 120.237 110.367 120.237H125.991C127.035 120.237 128.053 119.911 128.903 119.304L132.33 116.855C139.845 111.488 142.719 101.68 139.289 93.1052L130.57 68.9315C132.01 69.7071 133.635 70.1362 135.318 70.1362H137.616V65.1262C137.616 62.359 139.859 60.1162 142.626 60.1162H157.657V55.1062C157.657 52.3387 155.413 50.0959 152.647 50.0959Z" fill="#5D5360"/>
<path d="M100.896 79.6568C97.1976 76.8115 95.0301 72.4099 95.0301 67.7433V47.5887L2.34375 15.0234C2.34375 15.0234 31.6215 33.9678 33.0306 54.4777C55.3671 60.6359 54.6365 80.7805 54.6365 80.7805C54.6365 80.7805 80.422 73.869 100.152 92.3767C103.8 95.7992 108.387 98.0602 113.359 98.6127L124.024 99.7977C125.034 99.9099 125.553 98.623 124.747 98.0033L100.896 79.6568Z" fill="#E64555"/>
<path d="M9.85905 100.196L2.34375 92.6809L9.85905 72.6406L17.374 92.6809L9.85905 100.196Z" fill="#E64555"/>
<path d="M139.289 93.1057L131.005 70.1367C127.117 70.1367 124.408 73.9945 125.727 77.6517L132.22 95.6557L132.264 95.777L132.312 95.897C134.457 101.254 132.663 107.383 127.967 110.737L127.293 111.219C126.605 109.272 124.769 107.869 122.586 107.869C119.873 107.869 117.677 110.03 117.592 112.723H110.368C107.914 112.723 105.488 112.208 103.245 111.211L71.9836 98.7879C70.1311 98.1704 68.238 97.8573 66.3574 97.8573C64.8077 97.8573 63.2868 98.0723 61.8365 98.4967C53.338 100.983 47.4081 108.921 47.4349 117.793C47.4352 117.868 47.4356 117.944 47.4356 118.02C47.4593 126.105 40.9196 132.677 32.834 132.701C30.9375 132.706 29.3734 132.711 28.5656 132.716C18.2534 132.776 9.85938 124.427 9.85938 114.115V119.233C9.85938 130.848 19.2894 140.256 30.904 140.229C44.0352 141.079 54.9502 130.68 54.9502 117.732V117.725C54.9502 112.034 58.748 107.23 63.9471 105.709C65.4668 105.264 67.0746 105.299 68.6152 105.657L62.4652 130.257L70.6121 125.369C73.4718 123.653 75.7827 121.158 77.2739 118.175L81.4317 109.859L82.5055 110.217L100.193 118.078C103.396 119.501 106.862 120.237 110.367 120.237H117.739C118.08 122.282 119.025 124.19 120.51 125.676L124.661 129.827C126.54 131.706 127.596 134.255 127.596 136.913V119.959C128.058 119.803 128.501 119.59 128.902 119.304L132.33 116.855C139.845 111.488 142.719 101.68 139.289 93.1057Z" fill="#4B3F4E"/>
<path d="M152.646 47.7505H148.607L147.218 46.3614C144.883 44.0264 141.778 42.7405 138.475 42.7405H105.05C103.756 42.7405 102.707 43.7898 102.707 45.0842C102.707 46.3786 103.756 47.428 105.05 47.428H111.345L115.078 52.7604H112.565C111.271 52.7604 110.222 53.8098 110.222 55.1042C110.222 56.3986 111.271 57.4479 112.565 57.4479H118.359L122.092 62.7804H120.081C118.786 62.7804 117.737 63.8298 117.737 65.1242C117.737 66.4185 118.786 67.4679 120.081 67.4679H125.495C127.055 69.2273 129 70.5763 131.155 71.4295C130.011 73.3823 129.825 75.7566 130.673 77.8754L137.112 93.9738C140.15 101.568 137.623 110.192 130.967 114.946L129.939 115.68V110.215C129.939 108.92 128.89 107.871 127.596 107.871C126.301 107.871 125.252 108.92 125.252 110.215V127.102L122.168 124.017C120.718 122.567 119.919 120.64 119.919 118.589V110.215C119.919 108.92 118.87 107.871 117.575 107.871C116.281 107.871 115.232 108.92 115.232 110.215V117.891H110.366C107.169 117.891 104.066 117.233 101.144 115.934L84.6657 108.61C85.1367 107.483 84.6623 106.168 83.5529 105.613C82.3951 105.034 80.9873 105.504 80.4085 106.662L75.177 117.125C73.8826 119.713 71.8867 121.868 69.4051 123.357L66.1108 125.334L72.2536 100.763C72.5676 99.5075 71.8042 98.235 70.5482 97.921C69.2939 97.6072 68.0201 98.3704 67.7061 99.6263L66.8939 102.875C63.1414 103.017 59.6326 104.542 56.9617 107.211C54.1527 110.018 52.6058 113.752 52.6058 117.73C52.6058 128.869 43.5433 137.932 32.4039 137.932C25.7249 137.932 19.7918 134.672 16.1118 129.662C19.0087 131.52 22.4518 132.599 26.1415 132.599C36.4121 132.599 44.768 124.243 44.768 113.973C44.768 107.369 47.6139 101.083 52.5758 96.7263C57.5376 92.3694 64.1389 90.3604 70.6867 91.2147L99.7366 95.0038C100.709 95.131 101.659 94.6382 102.115 93.7694C102.571 92.9007 102.438 91.8401 101.781 91.111C91.4201 79.6116 78.9442 76.8082 70.3029 76.482C67.7889 76.3873 65.4554 76.4885 63.382 76.6888L92.6863 52.5558V67.7439C92.6863 73.1007 95.2213 78.2485 99.4672 81.5151L126.167 102.053C127.193 102.842 128.664 102.65 129.453 101.624C130.243 100.598 130.051 99.1266 129.025 98.3372L122.424 93.26V75.1445C122.424 73.8501 121.375 72.8007 120.081 72.8007C118.786 72.8007 117.737 73.8501 117.737 75.1445V89.6541L102.325 77.7991C99.2251 75.4141 97.3738 71.6548 97.3738 67.7432V47.5889C97.3738 46.5939 96.7457 45.7073 95.8069 45.3776L3.12087 12.8124C2.00118 12.4193 0.763997 12.9252 0.240248 13.9908C-0.282876 15.0565 0.073686 16.3452 1.06993 16.9908C1.34306 17.168 27.4899 34.3086 30.4627 52.6798L29.6302 52.7758C28.3443 52.9242 27.4224 54.0867 27.5705 55.3729C27.7083 56.5676 28.7218 57.4482 29.8958 57.4482C29.9855 57.4482 30.0761 57.4432 30.1674 57.4326L33.4764 57.0507C50.282 62.2254 52.0992 76.0035 52.278 79.7604L50.9542 80.8504C49.9548 81.6732 49.812 83.1504 50.6348 84.1494C51.0983 84.7123 51.7692 85.0032 52.4455 85.0032C52.9698 85.0032 53.4977 84.8279 53.9339 84.4688L55.9176 82.8351C57.593 82.3391 63.2054 80.8782 70.2961 81.1723C79.0392 81.5357 86.7057 84.3044 93.1707 89.4201L71.2929 86.5666C63.4079 85.5382 55.4583 87.9572 49.483 93.2038C43.5077 98.4503 40.0805 106.02 40.0805 113.973C40.0805 121.658 33.8274 127.912 26.1415 127.912C18.4555 127.912 12.2024 121.658 12.2024 113.973V101.166L19.0312 94.3369C19.6812 93.6869 19.8911 92.7172 19.5683 91.8566L12.0534 71.8163C11.7102 70.9017 10.8359 70.2954 9.85898 70.2954C8.88211 70.2954 8.00742 70.9013 7.66461 71.8163L0.149311 91.8569C-0.173501 92.7176 0.036811 93.6872 0.686497 94.3372L7.51523 101.166V117.731C7.51523 131.455 18.6805 142.62 32.4046 142.62C46.1286 142.62 57.2936 131.454 57.2936 117.724C57.2936 115.005 58.3526 112.449 60.2755 110.527C61.7698 109.033 63.6476 108.065 65.6861 107.707L60.1911 129.687C60.0551 130.23 60.1183 130.803 60.3686 131.304L66.1876 142.942H63.717C62.4226 142.942 61.3733 143.992 61.3733 145.286C61.3733 146.58 62.4226 147.63 63.717 147.63H71.232C71.8182 147.63 72.3832 147.41 72.8154 147.014C73.7561 146.152 75.3314 145.125 77.4948 145.125C79.6582 145.125 81.2335 146.152 82.1742 147.014C82.6242 147.426 83.1913 147.63 83.757 147.63C84.391 147.63 85.0235 147.374 85.4857 146.869C86.3601 145.915 86.2954 144.432 85.341 143.558C83.1448 141.545 80.3582 140.437 77.4951 140.437C75.2498 140.437 73.0523 141.119 71.1492 142.383L65.532 131.149L71.8176 127.377C75.0651 125.429 77.6767 122.609 79.3701 119.222L82.5748 112.811L99.2407 120.218C102.766 121.785 106.509 122.579 110.367 122.579H115.89C116.491 124.349 117.493 125.972 118.853 127.332L123.004 131.483C124.454 132.933 125.252 134.861 125.252 136.911V142.942H121.333C120.039 142.942 118.989 143.991 118.989 145.286C118.989 146.58 120.039 147.629 121.333 147.629H128.848C129.434 147.629 129.999 147.41 130.432 147.013C131.372 146.152 132.947 145.124 135.111 145.124C137.274 145.124 138.849 146.152 139.79 147.013C140.24 147.426 140.807 147.629 141.373 147.629C142.007 147.629 142.639 147.373 143.101 146.869C143.976 145.915 143.911 144.432 142.957 143.558C140.761 141.545 137.974 140.437 135.111 140.437C133.314 140.437 131.549 140.875 129.94 141.697V121.441L133.692 118.761C142.111 112.748 145.307 101.839 141.465 92.2332L135.025 76.1348C134.692 75.3001 134.789 74.3945 135.293 73.6498C135.797 72.9051 136.602 72.4782 137.501 72.4782H152.646C153.941 72.4782 154.99 71.4288 154.99 70.1345C154.99 68.8401 153.941 67.7907 152.646 67.7907H139.96V65.1245C139.96 63.6542 141.156 62.4582 142.626 62.4582H152.807V62.6195C152.807 63.9139 153.857 64.9632 155.151 64.9632C156.446 64.9632 157.495 63.9139 157.495 62.6195V62.4582H157.656C158.951 62.4582 160 61.4089 160 60.1145V55.1045C160 51.0495 156.701 47.7505 152.646 47.7505ZM54.3473 68.9779C52.4927 64.8514 49.0433 59.7882 42.6649 55.9904L65.2392 53.3858C66.5251 53.2373 67.447 52.0748 67.2989 50.7886C67.1501 49.5029 65.9883 48.5789 64.7017 48.7289L35.1192 52.1423C33.2855 40.2667 23.4346 29.3083 15.2199 22.0318L84.6523 46.427L74.7189 47.573C73.4329 47.7214 72.5111 48.8839 72.6592 50.1701C72.797 51.3648 73.8104 52.2454 74.9845 52.2454C75.0742 52.2454 75.1648 52.2404 75.2561 52.2298L87.4104 50.8273L56.5651 76.2291C56.2095 74.1951 55.5539 71.6626 54.3473 68.9779ZM5.06805 92.0894L9.85867 79.3145L14.6493 92.0894L9.85867 96.8804L5.06805 92.0894ZM155.312 57.7707H142.626C138.571 57.7707 135.272 61.0698 135.272 65.1245V67.6979C132.471 67.3226 129.923 65.7948 128.281 63.4479L124.081 57.4479H127.595C128.89 57.4479 129.939 56.3986 129.939 55.1042C129.939 53.8098 128.89 52.7604 127.595 52.7604H120.8L117.067 47.428H138.475C140.526 47.428 142.453 48.2264 143.903 49.6761L145.979 51.7514C146.418 52.1911 147.014 52.4379 147.636 52.4379H152.646C154.117 52.4379 155.312 53.6342 155.312 55.1042V57.7707H155.312Z" fill="black"/>
<path d="M140.145 50.2578H140.12C138.826 50.2578 137.789 51.3072 137.789 52.6016C137.789 53.8959 138.851 54.9453 140.145 54.9453C141.44 54.9453 142.489 53.8959 142.489 52.6016C142.489 51.3072 141.44 50.2578 140.145 50.2578Z" fill="black"/>
</g>
<defs>
<clipPath id="clip0_730_22442">
<rect width="160" height="160" fill="white" transform="translate(0 0.15625)"/>
</clipPath>
</defs>
</svg>
