<svg width="140" height="141" viewBox="0 0 140 141" fill="none" xmlns="http://www.w3.org/2000/svg">
<path d="M137.922 102.592C137.922 117.443 107.513 129.483 70.0009 129.483C62.0277 129.483 54.3764 128.94 47.2681 127.939C20.9371 124.238 2.08008 114.285 2.08008 102.592C2.08008 92.049 17.4024 82.9254 39.7111 78.5146L61.5123 78.3538L97.9899 78.082C121.538 82.3047 137.922 91.6913 137.922 102.592Z" fill="#533466"/>
<path d="M47.2681 127.94C20.9371 124.239 2.08008 114.287 2.08008 102.594C2.08008 92.0506 17.4024 82.9271 39.7111 78.5162L61.5123 78.3555L43.9693 102.397C43.9691 102.397 29.6754 110.345 47.2681 127.94Z" fill="#925CB4"/>
<path d="M105.635 102.591C105.635 110.384 89.6805 116.699 70.0002 116.699C60.8405 116.699 52.4906 115.332 46.178 113.084C38.9256 110.5 34.3652 106.757 34.3652 102.59L41.7229 86.234L38.3962 73.4814L56.6933 55.1843V37.9963L92.1784 10.8281L82.7527 39.1054L88.2972 51.3034L84.9706 66.8281L101.327 80.9668L105.635 102.591Z" fill="#925CB4"/>
<path d="M92.1784 10.8281L68.9162 41.2677V52.4926L53.1143 77.0273L57.6886 88.255L46.178 113.083C38.9256 110.5 34.3652 106.757 34.3652 102.59L41.7229 86.2337L38.3962 73.4811L56.6933 55.1841V37.9961L92.1784 10.8281Z" fill="#B27DD2"/>
<path d="M113.76 120.966C101.643 125.118 86.1025 127.406 70 127.406C52.1136 127.406 35.3289 124.66 22.7382 119.675C10.9307 115 4.15844 108.774 4.15844 102.594C4.15844 94.8382 14.8895 87.1048 32.1634 82.4104C33.2713 82.1094 33.9257 80.967 33.6246 79.8587C33.3238 78.7507 32.1817 78.0964 31.0729 78.3975C21.9089 80.8879 14.251 84.2728 8.92773 88.1863C3.08711 92.4803 0 97.4624 0 102.594C0 110.688 7.53156 118.127 21.2073 123.541C34.2738 128.715 51.602 131.564 70 131.564C86.5493 131.564 102.569 129.197 115.108 124.899C116.194 124.527 116.773 123.344 116.401 122.258C116.029 121.172 114.846 120.593 113.76 120.966Z" fill="black"/>
<path d="M120.027 82.1448C118.967 81.7032 117.75 82.2047 117.309 83.2651C116.867 84.3252 117.369 85.5422 118.429 85.9838C129.495 90.5915 135.842 96.6449 135.842 102.592C135.842 107.995 130.728 113.416 121.442 117.856C120.406 118.351 119.968 119.593 120.463 120.628C120.82 121.375 121.564 121.811 122.34 121.811C122.641 121.811 122.946 121.746 123.235 121.608C134.203 116.364 140.001 109.788 140.001 102.592C140.001 94.7694 132.907 87.5077 120.027 82.1448Z" fill="black"/>
<path d="M36.3851 74.0078L39.5269 86.0508L37.1398 91.3579C36.6687 92.4049 37.1357 93.636 38.183 94.1071C39.23 94.5779 40.461 94.1112 40.9321 93.0639L43.62 87.0882C43.8147 86.6554 43.8554 86.1695 43.7357 85.7104L40.7095 74.1106L52.5215 62.2987C52.522 62.2981 52.5223 62.2978 52.5229 62.2973L63.958 50.8621C64.7701 50.05 64.7701 48.7337 63.958 47.9219C63.1459 47.1097 61.8296 47.1097 61.0177 47.9219L58.7734 50.166V39.0242L88.0651 16.5982L80.7815 38.4492C80.6155 38.9471 80.644 39.4893 80.8611 39.967L86.1218 51.5403L84.7822 57.7913C84.7819 57.7927 84.7814 57.794 84.7811 57.7954L81.6839 72.2499C81.4435 73.3726 82.1588 74.4778 83.2816 74.7185C83.4281 74.7502 83.575 74.7649 83.7193 74.7649C84.6786 74.7649 85.541 74.0969 85.7504 73.121L86.2694 70.6992L99.4289 82.0748L103.551 102.774C103.263 108.416 89.5657 114.621 70.0007 114.621C50.6848 114.621 37.0879 108.572 36.4677 102.989L37.9374 99.7213C38.4086 98.674 37.9415 97.4433 36.8943 96.9722C35.847 96.501 34.6163 96.9681 34.1451 98.0153L32.47 101.739C32.3495 102.007 32.2871 102.298 32.2871 102.592C32.2871 107.272 36.4603 111.501 44.0381 114.501C51.0061 117.26 60.2267 118.779 70.0007 118.779C79.7747 118.779 88.9953 117.26 95.9633 114.501C103.541 111.501 107.715 107.272 107.715 102.592C107.715 102.456 107.701 102.32 107.674 102.186L103.368 80.5626C103.277 80.1087 103.039 79.6983 102.688 79.3959L87.2634 66.062L87.9396 62.9062L90.3324 51.7407C90.4257 51.3048 90.3764 50.8506 90.1922 50.4446L84.9856 38.9897L94.1529 11.4871C94.4416 10.6209 94.1313 9.66713 93.3878 9.13666C92.6441 8.60619 91.6416 8.62287 90.9162 9.1785L55.4311 36.3467C54.9171 36.7402 54.6157 37.3505 54.6157 37.9977V54.3247L36.9279 72.0125C36.4048 72.5345 36.1989 73.2938 36.3851 74.0078Z" fill="black"/>
</svg>
