<svg width="140" height="141" viewBox="0 0 140 141" fill="none" xmlns="http://www.w3.org/2000/svg">
<g clip-path="url(#clip0_730_22561)">
<path d="M94.7855 127.586H45.1971C42.7436 127.586 40.7559 129.575 40.7559 132.027C40.7559 134.481 42.7436 136.469 45.1971 136.469H94.7855C97.2379 136.469 99.2267 134.481 99.2267 132.027C99.2267 129.575 97.2379 127.586 94.7855 127.586Z" fill="#1C9262"/>
<path d="M94.784 127.586H88.2728C88.2802 127.699 88.2899 127.811 88.2899 127.927C88.2899 130.38 86.301 132.368 83.8476 132.368H40.7715C40.9456 134.661 42.8575 136.469 45.1956 136.469H94.784C97.2364 136.469 99.2252 134.481 99.2252 132.027C99.2252 129.575 97.2364 127.586 94.784 127.586Z" fill="#12553A"/>
<path d="M135.451 45.8507C134.743 43.3065 131.447 42.6613 129.842 44.7591C113.807 65.7348 88.5308 79.2678 60.089 79.2678C40.2135 79.2678 21.8836 72.6583 7.17133 61.5189C5.07676 59.9328 2.05292 61.395 2.05078 64.0226V64.0877C2.05078 93.085 20.2194 117.834 45.7912 127.586H94.2848C119.726 117.906 137.753 93.4278 137.929 64.5086C137.969 58.0411 137.101 51.783 135.451 45.8507Z" fill="#3BCD92"/>
<path d="M135.451 45.8501C134.742 43.3037 131.442 42.6681 129.835 44.7681C128.71 46.2389 127.539 47.6723 126.324 49.0683C126.783 52.3239 127.013 55.6522 126.993 59.0392C126.991 59.4408 126.985 59.8424 126.976 60.2419C126.174 94.7367 97.6036 122.118 63.0992 122.118H34.856C34.667 122.045 34.479 121.969 34.291 121.896C37.913 124.137 41.7604 126.049 45.7914 127.586H94.285C119.726 117.905 137.753 93.4272 137.929 64.5079C137.969 58.0405 137.101 51.7824 135.451 45.8501Z" fill="#1D6649"/>
<path d="M123.299 26.4515L109.872 18.6992C106.945 17.0094 105.942 13.2656 107.631 10.339C109.322 7.4113 113.065 6.40834 115.993 8.0981L129.42 15.8505C132.348 17.5413 133.35 21.284 131.661 24.2117C129.97 27.1394 126.227 28.1424 123.299 26.4515Z" fill="#3BCD92"/>
<path d="M129.42 15.8504L115.992 8.09797C113.678 6.76176 110.854 7.10996 108.938 8.7602L121.218 15.8504C124.144 17.5401 125.147 21.2839 123.457 24.2105C123.104 24.8236 122.659 25.3512 122.151 25.7881L123.299 26.4503C126.226 28.1412 129.97 27.1382 131.66 24.2105C133.349 21.2839 132.347 17.5401 129.42 15.8504Z" fill="#1D6649"/>
<path d="M60.2414 12.7765C65.9217 7.09621 75.0338 7.00115 80.5944 12.5628C86.156 18.1234 86.0599 27.2366 80.3807 32.9147C74.7016 38.595 56.5468 45.0111 52.3459 40.8102C48.1461 36.6104 54.5633 18.4556 60.2414 12.7765Z" fill="#76D084"/>
<path d="M99.7744 69.7969L122.864 26.1996L110.307 18.9492L73.0801 78.3098C82.5575 76.9031 91.5403 73.9807 99.7744 69.7969Z" fill="#3BCD92"/>
<path d="M114.365 21.293L96.8927 54.2839C93.0271 61.5823 86.4881 67.1333 78.6215 69.6477C78.5755 69.6616 78.5307 69.6765 78.4858 69.6904L73.0801 78.3101C82.5575 76.9034 91.5403 73.981 99.7744 69.7961L122.864 26.1999L114.365 21.293Z" fill="#1D6649"/>
<path d="M60.0881 79.2643C62.0652 79.2643 64.0263 79.197 65.9713 79.0678C64.43 69.6652 58.9965 57.431 53.9881 52.4226C46.366 44.8005 34.1361 44.6723 26.6732 52.1363C21.7353 57.0731 20.1235 64.0949 21.8015 70.4897C33.3713 76.1102 46.3607 79.2643 60.0881 79.2643Z" fill="#76D084"/>
<path d="M80.5928 12.5607C77.9107 9.87763 74.402 8.51578 70.8505 8.45703C75.1657 14.0561 74.6797 22.209 69.4438 27.4449C65.9574 30.9313 57.7693 34.6953 50.9942 36.1106C50.9878 38.188 51.3937 39.8575 52.3454 40.8092C56.5452 45.009 74.7 38.5929 80.3802 32.9137C86.0583 27.2345 86.1545 18.1213 80.5928 12.5607Z" fill="#5BB268"/>
<path d="M53.9891 52.4243C50.8617 49.2969 46.9577 47.433 42.9267 46.8359C42.9683 46.8776 43.0121 46.915 43.0527 46.9566C47.0784 50.9813 51.3787 59.6758 53.7114 67.8148C54.5681 70.8012 52.3197 73.7962 49.2125 73.7984C49.1933 73.7984 49.173 73.7984 49.1538 73.7984C39.5065 73.7984 30.2246 72.2379 21.543 69.3614C21.6188 69.7395 21.7043 70.1166 21.8025 70.4915C33.3724 76.1119 46.3617 79.2661 60.0902 79.2661C62.0673 79.2661 64.0284 79.1977 65.9723 79.0695C64.431 69.6669 58.9965 57.4316 53.9891 52.4243Z" fill="#5BB368"/>
<path d="M137.426 45.3002C136.266 41.1292 130.845 40.0707 128.213 43.5132C121.635 52.119 113.69 59.2487 104.795 64.7004L110.894 53.1861C111.424 52.1852 111.041 50.9441 110.042 50.4143C109.041 49.8845 107.8 50.2658 107.269 51.2667L98.2282 68.3352C91.6166 71.6207 84.5767 74.0368 77.2558 75.5129L110.994 21.7162L120.129 26.9895L111.747 42.8125C111.218 43.8134 111.599 45.0545 112.6 45.5843C113.602 46.1151 114.842 45.7328 115.372 44.7319L123.758 28.8982C127.363 30.1105 131.458 28.6632 133.437 25.2377C135.689 21.3359 134.348 16.3286 130.446 14.0759L117.017 6.32354C113.116 4.07088 108.109 5.41243 105.857 9.31426C103.881 12.7365 104.67 17.009 107.527 19.5276L71.8436 76.4229C70.4551 76.612 69.058 76.769 67.6523 76.8908C65.671 67.2286 60.3998 55.9386 55.4384 50.9761C53.5084 49.0461 51.2792 47.5154 48.8151 46.427C47.779 45.9699 46.5688 46.4388 46.1116 47.4749C45.6534 48.5109 46.1234 49.7222 47.1595 50.1793C49.1579 51.0616 50.9684 52.3059 52.5385 53.8761C56.7693 58.1069 61.6089 68.5125 63.5113 77.1493C60.5953 77.2625 57.6719 77.24 54.4697 77.035L52.4712 75.0376H55.2302C56.3624 75.0376 57.2809 74.119 57.2809 72.9868C57.2809 71.8546 56.3624 70.936 55.2302 70.936H48.3707L41.429 63.9943H48.9005C50.0338 63.9943 50.9513 63.0768 50.9513 61.9446C50.9513 60.8114 50.0338 59.8938 48.9005 59.8938H37.3275L29.6616 52.228C32.1706 50.2594 35.157 49.0663 38.4095 48.7534C39.5374 48.6455 40.363 47.6436 40.2541 46.5157C40.1462 45.3888 39.1465 44.5632 38.0175 44.6711C33.87 45.0705 29.9393 46.7026 26.7488 49.3142L16.4287 38.9951C15.6276 38.194 14.3298 38.194 13.5288 38.9951C12.7287 39.7962 12.7287 41.0939 13.5288 41.895L23.8468 52.212C20.5089 56.2975 18.8469 61.5462 19.1567 66.8355C15.4386 64.804 11.8465 62.4872 8.40928 59.8842C5.00412 57.3058 0 59.63 0 64.0873C0 92.0185 16.4116 116.387 40.4848 127.568C39.3825 128.732 38.7043 130.301 38.7043 132.027C38.7043 135.607 41.6159 138.519 45.1963 138.519H94.7846C98.3639 138.519 101.277 135.607 101.277 132.027C101.277 130.318 100.611 128.761 99.5271 127.601C130.751 113.158 146.569 78.1554 137.426 45.3002V45.3002ZM109.408 11.365C110.53 9.42108 113.024 8.7535 114.968 9.87502L128.395 17.6274C130.343 18.7521 131.01 21.2387 129.885 23.187C128.76 25.1341 126.274 25.8017 124.326 24.677C122.47 23.6057 127.637 26.5878 110.897 16.9246C108.954 15.802 108.286 13.308 109.408 11.365V11.365ZM34.1263 73.2314V62.4915L40.1184 68.4836V74.8902C38.0986 74.4095 36.1002 73.8573 34.1263 73.2314ZM44.22 72.5852L48.014 76.3802C46.7429 76.2018 45.4772 75.9946 44.22 75.7607V72.5852ZM26.7617 55.1268L30.0258 58.391V71.813C27.8426 70.9948 25.6935 70.0869 23.5808 69.0882C22.5308 64.0809 23.693 59.0404 26.7617 55.1268V55.1268ZM93.8981 125.535H59.3307C58.1985 125.535 57.2799 126.454 57.2799 127.586C57.2799 128.718 58.1985 129.636 59.3307 129.636H94.7846C96.1027 129.636 97.1751 130.709 97.1751 132.027C97.1751 133.346 96.1027 134.418 94.7846 134.418H45.1963C43.8782 134.418 42.8048 133.346 42.8048 132.027C42.8048 130.709 43.8771 129.636 45.1963 129.636H49.7614C50.8947 129.636 51.8122 128.718 51.8122 127.586C51.8122 126.454 50.8947 125.535 49.7614 125.535H46.1789C21.4542 115.945 4.1005 91.6297 4.1005 64.0242C4.10157 63.0854 5.18677 62.5887 5.93339 63.1537C45.0745 92.7886 101.25 85.5382 131.471 46.0041C132.049 45.2489 133.221 45.485 133.475 46.4003C142.37 78.3648 126.329 112.992 93.8981 125.535V125.535Z" fill="black"/>
<path d="M57.0262 44.203C64.6386 44.203 77.0234 39.17 81.83 34.3635C87.7997 28.3948 88.338 19.0552 83.3969 12.6572L90.7573 5.29682C91.5584 4.49574 91.5584 3.19798 90.7573 2.39689C89.9573 1.59687 88.6584 1.59687 87.8573 2.39689L80.497 9.75728C74.0979 4.81724 64.7593 5.35557 58.7907 11.3242C55.8117 14.3042 52.6074 20.3551 50.6292 26.7393C49.2823 31.0886 47.5242 38.888 50.8952 42.259C52.3361 43.6988 54.5834 44.203 57.0262 44.203ZM54.5471 27.9537C56.3159 22.2457 59.1859 16.7289 61.6906 14.2241C66.0624 9.85234 72.7948 9.3343 77.566 12.6882L75.7438 14.5104H64.2114C63.0792 14.5104 62.1617 15.429 62.1617 16.5612C62.1617 17.6934 63.0792 18.6109 64.2114 18.6109H71.6433L68.1987 22.0556H61.9064C60.7731 22.0556 59.8556 22.9741 59.8556 24.1064C59.8556 25.2386 60.7731 26.1571 61.9064 26.1571H64.0982L57.0849 33.1693C55.7893 34.4649 56.725 36.6695 58.5354 36.6695C59.0599 36.6695 59.5843 36.4698 59.9849 36.0693L64.2007 31.8534V32.647C64.2007 33.7792 65.1193 34.6967 66.2515 34.6967C67.3837 34.6967 68.3023 33.7792 68.3023 32.647V27.7518L71.2375 24.8167V29.1222C71.2375 30.2544 72.156 31.1719 73.2882 31.1719C74.4215 31.1719 75.339 30.2544 75.339 29.1222V20.7151C78.742 17.3121 77.0886 18.9655 80.466 15.5881C83.822 20.3615 83.2943 27.0992 78.93 31.4635C76.4253 33.9683 70.9085 36.8394 65.2015 38.6071C58.8238 40.5831 54.8184 40.3823 53.7951 39.3591C52.7719 38.3358 52.5711 34.3304 54.5471 27.9537Z" fill="black"/>
</g>
<defs>
<clipPath id="clip0_730_22561">
<rect width="140" height="140" fill="white" transform="translate(0 0.15625)"/>
</clipPath>
</defs>
</svg>
