<svg width="160" height="161" viewBox="0 0 160 161" fill="none" xmlns="http://www.w3.org/2000/svg">
<g clip-path="url(#clip0_730_22489)">
<path d="M90.5357 157.808H69.4641C68.5994 157.808 67.8984 157.107 67.8984 156.242V147.683C67.8984 146.818 68.5994 146.117 69.4641 146.117H90.5357C91.4004 146.117 92.1013 146.818 92.1013 147.683V156.242C92.1016 157.107 91.4007 157.808 90.5357 157.808Z" fill="#FFDBA9"/>
<path d="M95.0043 123.348H64.9967C64.1767 123.348 63.5117 122.683 63.5117 121.863V112.626C63.5117 111.806 64.1764 111.141 64.9967 111.141H95.0043C95.8243 111.141 96.4893 111.805 96.4893 112.626V121.863C96.489 122.683 95.8243 123.348 95.0043 123.348Z" fill="#FFDBA9"/>
<path d="M95.0044 123.348H88.2656V111.141H95.0044C95.8244 111.141 96.4894 111.805 96.4894 112.626V121.863C96.4891 122.683 95.8244 123.348 95.0044 123.348Z" fill="#FFC473"/>
<path d="M90.536 157.808H84.6973V146.117H90.5363C91.401 146.117 92.102 146.818 92.102 147.683V156.242C92.102 157.107 91.401 157.808 90.536 157.808Z" fill="#FFC473"/>
<path d="M91.2625 111.139L98.3306 38.6296C98.3597 38.3299 98.3022 38.0284 98.1644 37.7608L80 2.49609V111.139H91.2625V111.139Z" fill="#5391EF"/>
<path d="M98.3303 38.6316L91.2631 111.142H84.0862L91.1534 38.6316C91.1847 38.3341 91.1253 38.0304 90.9875 37.7644L80 16.4344V2.5L98.1644 37.7638C98.3019 38.0304 98.3584 38.3341 98.3303 38.6316Z" fill="#2D5288"/>
<path d="M68.7376 111.139L61.6695 38.6296C61.6404 38.3299 61.6979 38.0283 61.8357 37.7608L79.9998 2.49609V111.139H68.7376V111.139Z" fill="#5391EF"/>
<path d="M88.4474 123.348H71.5527V146.118H88.4474V123.348Z" fill="#B76035"/>
<path d="M88.4472 123.348H80V146.118H88.4472V123.348Z" fill="#A04C27"/>
<path d="M100.253 36.6867L82.0888 1.4219C82.0841 1.41253 82.0772 1.40471 82.0722 1.39565C82.0376 1.33065 81.9957 1.27065 81.9551 1.20909C81.9232 1.16065 81.8944 1.11003 81.8594 1.0644C81.8176 1.01034 81.7691 0.962214 81.7229 0.911589C81.6816 0.866901 81.6432 0.819089 81.5991 0.778151C81.5488 0.731276 81.4922 0.691588 81.4382 0.649401C81.3913 0.612838 81.3469 0.573151 81.2972 0.540651C81.2404 0.502838 81.1782 0.472838 81.1176 0.440025C81.0644 0.410963 81.0129 0.379088 80.9576 0.3544C80.9007 0.329088 80.8397 0.311275 80.7804 0.290338C80.7154 0.267525 80.6519 0.242213 80.5851 0.225025C80.5744 0.222212 80.5647 0.217212 80.5541 0.214712C80.5044 0.202837 80.4544 0.200337 80.4047 0.1919C80.3354 0.179712 80.2669 0.165962 80.1963 0.160025C80.1326 0.154712 80.0694 0.1569 80.006 0.1569C79.9388 0.156587 79.8719 0.1544 79.8041 0.160337C79.7379 0.165962 79.6735 0.1794 79.6082 0.190337C79.5547 0.1994 79.5013 0.202212 79.4479 0.215025C79.4363 0.217837 79.4263 0.22315 79.4147 0.226275C79.3541 0.2419 79.2963 0.265338 79.2372 0.28565C79.1716 0.30815 79.105 0.327838 79.0425 0.355963C78.9944 0.377525 78.9497 0.405963 78.9032 0.43065C78.8357 0.466588 78.7666 0.500338 78.7035 0.542213C78.6594 0.571276 78.6204 0.606901 78.5782 0.639088C78.5185 0.684713 78.4572 0.728463 78.4022 0.779401C78.36 0.818464 78.3235 0.864089 78.2841 0.906589C78.236 0.958776 78.1857 1.00878 78.1425 1.06471C78.1079 1.10971 78.0794 1.16003 78.0475 1.20815C78.0069 1.26971 77.9647 1.33003 77.9297 1.39565C77.9247 1.40503 77.9179 1.41253 77.9132 1.4219L59.7494 36.6857C59.4038 37.3567 59.2597 38.1082 59.3331 38.8582L66.1503 108.791H64.9969C62.8834 108.791 61.1634 110.511 61.1634 112.625V121.862C61.1634 123.976 62.8831 125.696 64.9969 125.696H69.2057V127.226C69.2057 128.522 70.2569 129.574 71.5541 129.574C72.8513 129.574 73.9025 128.523 73.9025 127.226V125.696H86.0998V143.769H73.9025V141.838C73.9025 140.541 72.8513 139.49 71.5541 139.49C70.2569 139.49 69.2057 140.541 69.2057 141.838V143.782C67.1688 143.917 65.551 145.612 65.551 147.683V156.242C65.551 158.4 67.3066 160.156 69.465 160.156H90.5366C92.6948 160.156 94.4507 158.401 94.4507 156.242V147.683C94.4507 145.612 92.8335 143.917 90.796 143.782V125.696H95.0048C97.1182 125.696 98.8382 123.976 98.8382 121.862V112.625C98.8382 110.511 97.1185 108.791 95.0048 108.791H93.8516L97.6676 69.6492C97.7932 68.3583 96.8492 67.2102 95.5582 67.0842C94.2641 66.9548 93.1188 67.9027 92.9932 69.1936L89.1323 108.792H82.3494V12.1854L95.9716 38.6323L94.3973 54.7845C94.2716 56.0754 95.2157 57.2239 96.5067 57.3495C97.7948 57.4742 98.9457 56.5308 99.0717 55.2401L100.668 38.8598C100.742 38.1085 100.598 37.357 100.253 36.6867ZM89.7541 155.46H70.2478V148.466H71.5538H88.4479H89.7538V155.46H89.7541ZM91.2632 113.489H94.1413V120.999H88.4479H71.5541H65.8606V113.489H68.7388H80.001H91.2632ZM70.8694 108.792L64.0303 38.6323L77.6525 12.1854V108.792H70.8694V108.792Z" fill="black"/>
</g>
<defs>
<clipPath id="clip0_730_22489">
<rect width="160" height="160" fill="white" transform="translate(0 0.15625)"/>
</clipPath>
</defs>
</svg>
