<svg width="140" height="141" viewBox="0 0 140 141" fill="none" xmlns="http://www.w3.org/2000/svg">
<g clip-path="url(#clip0_730_22471)">
<path d="M115.034 32.4716L107.621 25.0587C106.678 24.1159 105.149 24.1159 104.207 25.0587L99.1973 30.068L110.025 40.8956L115.034 35.8862C115.977 34.9432 115.977 33.4146 115.034 32.4716Z" fill="#EFEACE"/>
<path d="M11.1923 136.847L3.2457 128.9C1.6707 127.325 1.6707 124.772 3.2457 123.197L63.9852 62.457L77.6355 76.1073L16.896 136.847C15.321 138.422 12.7673 138.422 11.1923 136.847Z" fill="#EFEACE"/>
<path d="M63.9851 62.4609L58.3432 68.1028C63.3176 73.0771 63.3176 81.1422 58.3432 86.1163L9.40039 135.059L11.192 136.851C12.767 138.426 15.3206 138.426 16.8956 136.851L77.6351 76.1118L63.9851 62.4609Z" fill="#D8D3B6"/>
<path d="M115.034 32.4742L113.16 30.6C111.2 32.5598 108.023 32.5598 106.064 30.6L102.366 26.9023L99.1973 30.0707L110.025 40.8982L115.034 35.8889C115.977 34.9458 115.977 33.4173 115.034 32.4742Z" fill="#D8D3B6"/>
<path d="M41.5496 40.6765L99.416 98.543L133.895 64.0637L76.0289 6.19724L41.5496 40.6765Z" fill="#B66140"/>
<path d="M105.535 102.08L99.416 98.5416L133.895 64.0625L137.519 70.0062C138.194 71.1131 138.023 72.538 137.106 73.4548L108.927 101.634C108.028 102.534 106.636 102.716 105.535 102.08Z" fill="#7C381D"/>
<path d="M69.91 2.65859L76.0287 6.19659L41.5496 40.6757L37.9263 34.732C37.2514 33.6251 37.4218 32.2002 38.3386 31.2834L66.5177 3.10402C67.417 2.20468 68.8088 2.02175 69.91 2.65859Z" fill="#CE886B"/>
<path d="M34.9628 118.783L21.3125 105.133L3.2457 123.2C1.6707 124.775 1.6707 127.328 3.2457 128.903L11.1923 136.85C12.7673 138.425 15.321 138.425 16.896 136.85L34.9628 118.783Z" fill="#F5D4A6"/>
<path d="M14.0442 138.028C15.0764 138.028 16.1084 137.635 16.8959 136.847L25.4679 128.275L34.9627 118.78L30.3192 114.137L9.40039 135.056L10.4611 136.116L11.1922 136.847C11.9797 137.635 13.012 138.028 14.0442 138.028Z" fill="#D1AE7E"/>
<path d="M139.284 68.9306L135.66 62.9869C135.576 62.8482 135.471 62.7167 135.357 62.6013L113.298 40.5426L116.494 37.3472C117.34 36.5009 117.806 35.3757 117.806 34.1788C117.806 32.982 117.34 31.8568 116.494 31.0105L109.081 23.5976C107.334 21.8504 104.491 21.8504 102.744 23.5976L99.549 26.793L77.4902 4.73426C77.3647 4.60876 77.2168 4.49555 77.0634 4.40669L70.9447 0.868131C69.0374 -0.234916 66.6161 0.082545 65.0567 1.64141L36.8774 29.8205C35.281 31.4168 34.9871 33.8781 36.162 35.8055L39.7856 41.7492C39.8699 41.8879 39.9749 42.0194 40.0889 42.1348L60.7361 62.782L59.4699 64.0483C58.6629 64.8553 58.6629 66.1637 59.4701 66.9703C60.2768 67.7775 61.5852 67.7772 62.3921 66.9703L63.6581 65.704L74.3864 76.4323L34.9619 115.857L24.2336 105.129L55.7128 73.6818C56.5197 72.8749 56.5197 71.5665 55.7128 70.7599C54.9056 69.9529 53.5975 69.9529 52.7906 70.7599L1.78356 121.735C-0.594521 124.113 -0.594521 127.983 1.78356 130.361L9.7302 138.307C10.8822 139.459 12.414 140.094 14.0431 140.094C15.6723 140.094 17.2041 139.459 18.3561 138.307L77.3084 79.3551L97.9556 100.002C98.0811 100.128 98.2291 100.241 98.3825 100.33L104.501 103.868C105.261 104.307 106.102 104.521 106.938 104.521C108.2 104.521 109.451 104.033 110.389 103.095L138.568 74.9153C140.165 73.3192 140.459 70.858 139.284 68.9306ZM15.4338 135.385C15.0625 135.757 14.5687 135.962 14.0431 135.962C13.5176 135.962 13.0238 135.757 12.6524 135.385L4.70579 127.439C4.33419 127.067 4.12938 126.573 4.12938 126.048C4.12938 125.523 4.33419 125.029 4.70579 124.657L21.3114 108.052L32.0397 118.78L15.4338 135.385ZM61.3825 57.5848L85.3611 54.7301L82.5064 78.7087L61.3825 57.5848ZM57.6638 53.8658L44.4721 40.6741L76.029 9.11692L89.2207 22.3086L85.8634 50.5088L57.6638 53.8658ZM92.9397 26.0277L98.0874 31.1757V31.176L99.792 32.8806L114.063 47.1518L90.0847 50.0065L92.9397 26.0277ZM105.667 26.5193C105.751 26.4351 105.847 26.4173 105.913 26.4173C105.979 26.4173 106.075 26.4348 106.159 26.5193L113.572 33.9322C113.656 34.0164 113.674 34.1127 113.674 34.1786C113.674 34.2445 113.656 34.3404 113.572 34.4247L110.377 37.6201L106.424 33.6672L102.471 29.7144L105.667 26.5193ZM39.7999 32.7427L67.9787 4.56364C68.1217 4.42063 68.3123 4.34598 68.5051 4.34598C68.6322 4.34598 68.7604 4.3788 68.8764 4.44551L72.6651 6.6363L41.9463 37.3554L39.6908 33.6549C39.5117 33.361 39.5565 32.9858 39.7999 32.7427ZM135.646 71.9933L107.467 100.172C107.23 100.41 106.861 100.459 106.57 100.29L102.781 98.0993L123.807 77.0733C124.614 76.2664 124.614 74.958 123.807 74.1513C123 73.3444 121.692 73.3444 120.885 74.1513L99.4174 95.6189L86.2257 82.4272L89.5827 54.2273L117.783 50.8703L130.974 64.062L127.83 67.2068C127.023 68.0137 127.023 69.3221 127.83 70.1288C128.636 70.9357 129.945 70.9357 130.752 70.1288L133.5 67.3807L135.755 71.0812C135.934 71.3751 135.89 71.7503 135.646 71.9933Z" fill="black"/>
</g>
<defs>
<clipPath id="clip0_730_22471">
<rect width="140" height="140" fill="white" transform="translate(0 0.15625)"/>
</clipPath>
</defs>
</svg>
